<svg fill="#fff" xmlns="http://www.w3.org/2000/svg" width="288.826" height="288.793" viewBox="0 0 288.826 288.793">
  <g id="BL" transform="translate(-91.808 -93.112)">
    <path id="L" d="M342.142,339.939V397.7H168.873a57.757,57.757,0,0,1-57.763-57.782V166.67h57.763v144.4a28.882,28.882,0,0,0,28.871,28.871Z" transform="translate(-19.302 -15.795)"/>
    <path id="B" d="M392.754,284.389a86.553,86.553,0,0,1,4.949,28.882v28.871H339.939V313.271a28.882,28.882,0,0,0-28.871-28.882H195.541V226.626H311.068a28.879,28.879,0,0,0,0-57.758l-144.4.005V111.11h144.4a86.593,86.593,0,0,1,64.542,144.4,86.5,86.5,0,0,1,17.144,28.879Z" transform="translate(-17.098 -17.998)"/>
  </g>
</svg>
